<?xml version="1.0" encoding="utf-8"?><svg xmlns="http://www.w3.org/2000/svg" xmlns:xlink="http://www.w3.org/1999/xlink"><symbol viewBox="0 0 12 14" id="attach" xmlns="http://www.w3.org/2000/svg"><path d="M6.107 5.227a.571.571 0 01.808.808L4.531 8.419a.86.86 0 000 1.212.86.86 0 001.213 0l4.444-4.445a2.29 2.29 0 000-3.232 2.29 2.29 0 00-3.232 0L2.51 6.398c-1.458 1.458-1.43 3.823 0 5.253 1.43 1.43 3.795 1.458 5.253 0l2.384-2.384a.571.571 0 11.808.808L8.572 12.46c-1.908 1.908-4.996 1.873-6.87 0-1.872-1.872-1.907-4.96 0-6.869l4.446-4.444c1.374-1.375 3.549-1.3 4.848 0 1.3 1.299 1.375 3.474 0 4.848L6.552 10.44a2.001 2.001 0 01-2.829 0 2.001 2.001 0 010-2.829l2.384-2.383z"/></symbol><symbol viewBox="0 0 16 16" id="brain" xmlns="http://www.w3.org/2000/svg"><path d="M7.988.558l.14-.043c1.825-.53 3.361.045 4.328 1.457l.063.096.12.05c2.536 1.084 2.952 3.762 1.806 5.804.616.829.746 1.652.432 2.413-.203.492-.538.876-.997 1.237l-.024.019.003.125c.014 1.664-.865 2.519-2.157 2.535-.358.738-.973 1.212-1.809 1.384-.744.153-1.398.009-1.917-.417-1.006.774-2.758.466-3.646-.803l-.085-.13h-.023c-1.504-.067-2.291-1.078-2.152-2.492l.013-.115-.04-.02C1.102 11.13.662 9.925.958 8.782l.036-.127c.091-.294.223-.56.391-.796C.282 6.053.8 3 3.265 2.199l.097-.03.124-.159c.104-.132.197-.246.291-.355C4.903.355 6.213-.14 7.988.558zm.558 1.041v12.56c.281.338.626.443 1.114.342.37-.075.645-.236.844-.497-.616-.328-.965-.988-1.031-1.897a.579.579 0 011.154-.085c.05.687.263.975.675 1.041 1.012.163 1.52-.259 1.38-1.694a.579.579 0 01.245-.53c.443-.31.742-.61.88-.945.125-.302.107-.63-.112-1.016-.83.744-2.022 1.142-2.71.852a.579.579 0 11.45-1.066c.284.12 1.356-.34 1.824-1.022 1.095-1.6.824-3.8-1.32-4.555a.579.579 0 01-.305-.252C10.965 1.7 9.923 1.232 8.546 1.599zm-3.894.813l-.166.2-.328.42a.579.579 0 01-.325.209C2.09 3.65 1.63 5.778 2.273 7.08c.738-.402 1.728-.515 2.885-.257a.579.579 0 11-.252 1.13c-1.57-.35-2.524.127-2.807 1.043-.234.759.09 1.535.69 1.73l.084.023c.32.072.516.397.43.714-.307 1.147.096 1.733 1.25 1.662a.58.58 0 01.563.34c.48 1.069 1.821 1.282 2.274.716L7.388 1.57c-1.165-.401-1.945-.071-2.736.842zm-.646 6.79c.644.24 1.165.61 1.551 1.108.396.508.606 1.126.634 1.835a.579.579 0 01-1.157.044c-.018-.475-.149-.858-.39-1.169-.251-.322-.595-.567-1.044-.735A.579.579 0 114.006 9.2zm6.838-5.082c.174.597.408.993.684 1.204.264.202.65.294 1.179.258a.579.579 0 11.08 1.154c-.791.055-1.453-.103-1.962-.493-.498-.38-.855-.985-1.092-1.8a.579.579 0 111.111-.323zM6.367 3.106c.31.078.499.392.421.702-.15.597-.467 1.058-.946 1.345-.432.26-.91.39-1.424.39a.579.579 0 010-1.157c.305 0 .578-.074.828-.225.204-.122.341-.321.42-.634a.579.579 0 01.701-.42z"/></symbol><symbol viewBox="0 0 24 23" id="chat" xmlns="http://www.w3.org/2000/svg"><path d="M6.999 18.236a1.05 1.05 0 011.167-.302c1.196.448 2.494.683 3.834.683 5.252 0 9.45-3.599 9.45-7.95 0-4.352-4.198-7.95-9.45-7.95-5.252 0-9.45 3.598-9.45 7.95 0 1.497.493 2.933 1.417 4.183.134.182.206.402.205.628-.004 1.042-.44 2.541-1.3 4.568 1.93-.216 3.291-.83 4.127-1.81zm-5.045 3.982c-1.067.042-1.86-1.1-1.41-2.094.904-2.001 1.403-3.47 1.507-4.345-1.04-1.531-1.6-3.285-1.6-5.112C.45 5.077 5.653.617 12 .617c6.345 0 11.55 4.46 11.55 10.05 0 5.59-5.205 10.05-11.55 10.05-1.35 0-2.67-.202-3.912-.59-1.412 1.302-3.472 1.986-6.135 2.09z"/></symbol><symbol viewBox="0 0 11 8" id="check" xmlns="http://www.w3.org/2000/svg"><path d="M3.85 6.62L.939 3.596a.536.536 0 00-.778 0 .587.587 0 000 .808l3.3 3.429a.536.536 0 00.778 0l6.6-6.858a.587.587 0 000-.808.536.536 0 00-.778 0L3.85 6.62z"/></symbol><symbol viewBox="0 0 10 10" id="close" xmlns="http://www.w3.org/2000/svg"><path d="M9.736.264a.9.9 0 010 1.272L6.273 5l3.463 3.464a.9.9 0 01.08 1.18l-.08.092a.9.9 0 01-1.272 0L5 6.273 1.536 9.736A.9.9 0 11.264 8.464L3.727 5 .264 1.536a.9.9 0 01-.08-1.18l.08-.092a.9.9 0 011.272 0L5 3.727 8.464.264a.9.9 0 011.272 0z"/></symbol><symbol viewBox="0 0 11 6" id="down-arrow" xmlns="http://www.w3.org/2000/svg"><path d="M5.5 4.551L9.957.176a.62.62 0 01.864 0 .592.592 0 010 .848l-4.889 4.8a.62.62 0 01-.864 0l-4.889-4.8a.592.592 0 010-.848.62.62 0 01.864 0L5.5 4.55z"/></symbol><symbol viewBox="0 0 9 17" id="facebook" xmlns="http://www.w3.org/2000/svg"><path fill-rule="evenodd" clip-rule="evenodd" d="M5.726 16.858V8.655H7.99l.3-2.826H5.726l.004-1.415c0-.737.07-1.132 1.128-1.132h1.416V.455H6.009c-2.72 0-3.677 1.371-3.677 3.677V5.83H.636v2.827h1.696v8.202h3.394z"/></symbol><symbol viewBox="0 0 19 15" id="friends" xmlns="http://www.w3.org/2000/svg"><path d="M14.922 4.294a2.255 2.255 0 10-4.512 0 2.255 2.255 0 104.512 0zm1.425 0a3.68 3.68 0 11-7.362 0 3.68 3.68 0 117.363 0zm-8.51 8.295c0 .609-.072.532.266.532h9.127c.337 0 .265.077.265-.532 0-1.498-2.199-2.397-4.829-2.397s-4.829.899-4.829 2.397zm4.83-3.822c3.346 0 6.253 1.189 6.253 3.822 0 1.374-.542 1.957-1.69 1.957H8.103c-1.148 0-1.69-.583-1.69-1.957 0-2.633 2.907-3.822 6.253-3.822zm-5.039-3.75a.713.713 0 010 1.008L3.67 9.983a.712.712 0 01-1.008 0L.683 8.003a.712.712 0 111.008-1.007l1.475 1.476 3.455-3.455a.712.712 0 011.007 0z"/></symbol><symbol viewBox="0 0 16 11" id="google" xmlns="http://www.w3.org/2000/svg"><path fill-rule="evenodd" clip-rule="evenodd" d="M5.183 6.2V4.562h4.53c.04.238.075.477.075.79 0 2.729-1.837 4.666-4.605 4.666-2.652 0-4.797-2.135-4.797-4.774C.386 2.605 2.53.47 5.183.47c1.295 0 2.377.471 3.214 1.25L7.095 2.967c-.357-.341-.98-.737-1.912-.737-1.638 0-2.974 1.35-2.974 3.015 0 1.664 1.336 3.014 2.974 3.014 1.898 0 2.61-1.357 2.72-2.06h-2.72zm8.909-1.637h1.37v1.364h-1.37V7.29H12.72V5.927h-1.37V4.563h1.37V3.199h1.37v1.364z"/></symbol><symbol viewBox="0 0 412.735 412.735" id="heart" xmlns="http://www.w3.org/2000/svg"><path d="M295.706 35.522a115.985 115.985 0 00-89.339 41.273 114.413 114.413 0 00-89.339-41.273C52.395 35.522 0 87.917 0 152.55c0 110.76 193.306 218.906 201.143 223.086a9.404 9.404 0 0010.449 0c7.837-4.18 201.143-110.759 201.143-223.086 0-64.633-52.396-117.028-117.029-117.028zm-89.339 319.216C176.065 336.975 20.898 242.412 20.898 152.55c0-53.091 43.039-96.131 96.131-96.131a94.041 94.041 0 0180.457 43.363c3.557 4.905 10.418 5.998 15.323 2.44a10.968 10.968 0 002.44-2.44c29.055-44.435 88.631-56.903 133.066-27.848a96.129 96.129 0 0143.521 80.615c.001 90.907-155.167 184.948-185.469 202.189z"/></symbol><symbol viewBox="0 0 17 18" id="instagram" xmlns="http://www.w3.org/2000/svg"><path fill-rule="evenodd" clip-rule="evenodd" d="M8.616.953c-2.184 0-2.458.01-3.315.048-.856.04-1.44.175-1.952.374-.529.205-.977.48-1.424.927a3.947 3.947 0 00-.928 1.424c-.2.512-.335 1.096-.374 1.952C.585 6.535.575 6.81.575 8.993c0 2.184.01 2.457.048 3.315.04.856.175 1.44.374 1.951.205.53.48.978.927 1.425.447.447.895.723 1.424.928.512.199 1.096.334 1.952.373.858.04 1.131.05 3.315.05s2.457-.01 3.315-.05c.856-.039 1.44-.174 1.952-.373.529-.205.977-.48 1.424-.928.447-.447.722-.896.928-1.424.197-.512.333-1.096.373-1.952.039-.857.049-1.13.049-3.315 0-2.183-.01-2.457-.049-3.315-.04-.856-.176-1.44-.373-1.952a3.947 3.947 0 00-.928-1.424 3.93 3.93 0 00-1.424-.927c-.513-.2-1.097-.335-1.953-.374C11.07.962 10.798.953 8.613.953h.003zm-.721 1.449h.72c2.148 0 2.402.007 3.25.046.784.036 1.21.167 1.493.277.375.146.643.32.924.601.281.282.456.55.602.925.11.283.24.709.277 1.492.038.848.046 1.103.046 3.249 0 2.145-.008 2.4-.046 3.248-.036.784-.167 1.21-.277 1.492-.146.376-.32.643-.602.924a2.485 2.485 0 01-.924.601c-.283.11-.709.242-1.493.277-.848.039-1.102.047-3.25.047-2.146 0-2.4-.008-3.248-.047-.784-.036-1.21-.167-1.493-.277a2.49 2.49 0 01-.925-.601 2.493 2.493 0 01-.602-.924c-.11-.284-.24-.709-.277-1.493-.038-.848-.046-1.102-.046-3.25 0-2.147.008-2.4.046-3.248.036-.784.167-1.209.277-1.492a2.48 2.48 0 01.602-.925c.281-.282.55-.456.925-.602.283-.11.709-.241 1.493-.277.742-.034 1.029-.044 2.528-.045v.002zm5.013 1.335a.965.965 0 100 1.93.965.965 0 000-1.93zM8.616 4.864a4.13 4.13 0 100 8.259 4.13 4.13 0 000-8.259zm0 1.45a2.68 2.68 0 110 5.36 2.68 2.68 0 010-5.36z"/></symbol><symbol viewBox="0 0 13 12" id="like" xmlns="http://www.w3.org/2000/svg"><path d="M6.49 11.598l.02.027c5.767-2.401 7.99-7.969 5.45-10.37-2.54-2.402-5.45.873-5.45.873h-.02s-2.91-3.275-5.45-.873C-1.5 3.656.723 9.196 6.49 11.598z"/></symbol><symbol viewBox="0 0 13 12" id="like2" xmlns="http://www.w3.org/2000/svg"><path d="M11.9 6.223c-.878 1.823-2.703 3.684-5.368 4.85-2.7-1.164-4.548-3.034-5.432-4.864-.909-1.883-.764-3.6.284-4.591.551-.522 1.098-.716 1.603-.74.518-.026 1.034.125 1.508.36.473.235.88.542 1.174.794a6.129 6.129 0 01.422.401l.02.022.005.005.149.168h.47l.149-.168.004-.005.02-.022c.02-.02.048-.05.087-.088.077-.078.191-.188.336-.313a5.816 5.816 0 011.174-.794c.474-.235.99-.386 1.508-.36.505.024 1.051.218 1.603.74 1.048.99 1.193 2.715.284 4.605z"/></symbol><symbol viewBox="0 0 16 16" id="list" xmlns="http://www.w3.org/2000/svg"><path d="M11.084 0c1.434 0 2.132.135 2.857.523.66.353 1.183.876 1.536 1.536.388.725.523 1.423.523 2.857v6.168c0 1.434-.135 2.132-.523 2.857a3.704 3.704 0 01-1.536 1.536c-.725.388-1.423.523-2.857.523H4.916c-1.434 0-2.132-.135-2.857-.523a3.703 3.703 0 01-1.536-1.536C.135 13.216 0 12.518 0 11.084V4.916C0 3.482.135 2.784.523 2.06A3.703 3.703 0 012.059.523C2.784.135 3.482 0 4.916 0h6.168zm0 1.5H4.916c-1.207 0-1.671.09-2.15.345a2.203 2.203 0 00-.92.921c-.256.479-.346.943-.346 2.15v6.168c0 1.207.09 1.671.345 2.15.214.399.522.707.921.92.479.256.943.346 2.15.346h6.168c1.207 0 1.671-.09 2.15-.345.399-.214.707-.522.92-.921.256-.479.346-.943.346-2.15V4.916c0-1.207-.09-1.671-.345-2.15a2.203 2.203 0 00-.921-.92c-.479-.256-.943-.346-2.15-.346zm-1.834 9a.75.75 0 010 1.5h-4.5a.75.75 0 010-1.5h4.5zm2-3.25a.75.75 0 010 1.5h-6.5a.75.75 0 010-1.5h6.5zm0-3.25a.75.75 0 010 1.5h-6.5a.75.75 0 010-1.5h6.5z"/></symbol><symbol viewBox="0 0 85 85" id="list-answer" xmlns="http://www.w3.org/2000/svg"><path d="M14.75.875h55.5c7.663 0 13.875 6.212 13.875 13.875v55.5c0 7.663-6.212 13.875-13.875 13.875h-55.5C7.087 84.125.875 77.913.875 70.25v-55.5C.875 7.087 7.087.875 14.75.875zM24 47.125h37a4.625 4.625 0 000-9.25H24a4.625 4.625 0 000 9.25zm0-18.5h37a4.625 4.625 0 000-9.25H24a4.625 4.625 0 000 9.25zm0 37h23.125a4.625 4.625 0 000-9.25H24a4.625 4.625 0 000 9.25z"/></symbol><symbol viewBox="0 0 27 27" id="math" xmlns="http://www.w3.org/2000/svg"><path d="M20.785 5.783c2.276 0 4.358-1.398 5.18-3.48a1.142 1.142 0 10-2.126-.84c-.48 1.217-1.708 2.035-3.054 2.035H7.92c-2.297 0-4.3 1.011-5.79 2.926C1.044 7.818.61 9.22.593 9.28a1.143 1.143 0 002.186.663c.013-.041 1.307-4.16 5.14-4.16h1.623l-.06.993c-.195 3.264-.462 7.735-1.216 11.41-.397 1.938-.886 3.426-1.454 4.423-.777 1.365-1.433 1.365-1.649 1.365a1.143 1.143 0 100 2.285c1.004 0 2.45-.437 3.634-2.519.697-1.224 1.256-2.89 1.708-5.094.786-3.836 1.059-8.4 1.258-11.733.024-.395.046-.775.069-1.13h8.952z"/><path d="M24.926 19.298a1.145 1.145 0 00-1.166 1.118c0 .01-.032.942-.483 1.858-.561 1.144-1.5 1.7-2.87 1.7-.678 0-1.18-.194-1.535-.594-.815-.916-.801-2.74-.728-3.362l.004-.04c.006-.056.51-5.741.864-10.578a1.143 1.143 0 10-2.28-.167c-.343 4.685-.827 10.172-.858 10.526-.05.422-.322 3.316 1.282 5.13.792.896 1.916 1.37 3.25 1.37 2.232 0 3.98-1.057 4.923-2.977a7.275 7.275 0 00.715-2.818 1.143 1.143 0 00-1.118-1.166z"/></symbol><symbol viewBox="0 0 24 24" id="message" xmlns="http://www.w3.org/2000/svg"><path d="M16.895 4h-9.79c-1.152 0-1.74.113-2.35.44A3.172 3.172 0 003.44 5.754c-.327.613-.44 1.2-.44 2.35v5.791c0 1.152.113 1.74.44 2.35a3.17 3.17 0 001.315 1.315l.14.071c.517.25 1.05.352 1.954.367L7.1 18v2.215c0 .432.17.846.472 1.155l.116.108a1.65 1.65 0 002.217-.085L13.366 18h3.53c1.151 0 1.738-.113 2.35-.44a3.171 3.171 0 001.314-1.314c.327-.612.44-1.199.44-2.35V8.104c0-1.152-.113-1.74-.44-2.35a3.171 3.171 0 00-1.314-1.315c-.612-.327-1.199-.44-2.35-.44zM6.912 5.801l9.983-.001c.88 0 1.187.06 1.502.228.25.134.441.325.576.575.168.315.227.622.227 1.502v5.79l-.004.368c-.017.607-.081.867-.224 1.134-.134.25-.325.441-.575.575-.315.169-.622.228-1.502.228H13l-.117.008a.9.9 0 00-.513.25L8.9 19.856V17.1a.9.9 0 00-.9-.9h-.895l-.368-.004c-.607-.017-.867-.081-1.134-.224a1.372 1.372 0 01-.575-.575c-.169-.315-.228-.622-.228-1.502v-5.79l.004-.368c.017-.607.081-.867.224-1.134.134-.25.325-.441.575-.575.291-.156.575-.218 1.309-.227z"/></symbol><symbol viewBox="0 0 24 24" id="notify" xmlns="http://www.w3.org/2000/svg"><path d="M12.004 2.1c4.015 0 6.896 3.278 6.896 7.532v1.6c0 .228.193.531.72 1.075l.27.275c1.082 1.097 1.51 1.729 1.51 2.745 0 .445-.052.791-.268 1.207-.456.877-1.423 1.366-2.869 1.366l-1.912.001c-.629 2.332-2.13 3.6-4.351 3.6-2.245 0-3.754-1.295-4.371-3.675l.019.074H5.737c-1.488 0-2.466-.502-2.902-1.41-.191-.398-.235-.72-.235-1.163 0-1.016.428-1.648 1.51-2.745l.27-.275c.527-.544.72-.847.72-1.076v-1.6C5.1 5.38 7.988 2.1 12.004 2.1zm2.462 15.802H9.534C9.99 19.148 10.776 19.7 12 19.7c1.224 0 2.01-.552 2.466-1.798zM12.004 3.9C9.036 3.9 6.9 6.327 6.9 9.632v1.6c0 .852-.39 1.463-1.228 2.328-.073.075-.142.146-.281.286-.747.758-.991 1.118-.991 1.481 0 .192.014.292.057.383.107.223.433.39 1.28.39h12.526c.82 0 1.153-.169 1.272-.397.05-.095.065-.197.065-.376 0-.363-.244-.723-.99-1.48-.14-.141-.209-.212-.282-.287-.839-.865-1.228-1.476-1.228-2.329v-1.6c0-3.307-2.13-5.731-5.096-5.731z"/></symbol><symbol viewBox="0 0 10 16" id="ok" xmlns="http://www.w3.org/2000/svg"><path fill-rule="evenodd" clip-rule="evenodd" d="M6.504 4.346c0-.888-.749-1.61-1.669-1.61s-1.669.722-1.669 1.61c0 .887.75 1.61 1.67 1.61.92 0 1.668-.723 1.668-1.61zm2.362 0c0 2.145-1.807 3.89-4.03 3.89-2.223 0-4.031-1.745-4.031-3.89 0-2.146 1.808-3.89 4.03-3.89 2.224 0 4.03 1.744 4.03 3.89zm-.05 6.129a7.703 7.703 0 01-2.34.935l2.253 2.175a1.111 1.111 0 010 1.612 1.21 1.21 0 01-1.669 0L4.845 13.06l-2.213 2.137a1.2 1.2 0 01-.836.334 1.2 1.2 0 01-.834-.334 1.112 1.112 0 010-1.611l2.252-2.176a7.716 7.716 0 01-2.34-.935 1.117 1.117 0 01-.37-1.572 1.204 1.204 0 011.628-.358 5.273 5.273 0 005.426 0 1.205 1.205 0 011.629.358 1.117 1.117 0 01-.37 1.572z"/></symbol><symbol viewBox="0 0 19 20" id="points-user" xmlns="http://www.w3.org/2000/svg"><path fill-rule="evenodd" clip-rule="evenodd" d="M9.5 19.967a9.5 9.5 0 100-19 9.5 9.5 0 000 19zm2.487-10.013c.509-.506.75-1.139.722-1.9-.032-.742-.327-1.287-.885-1.636-.56-.357-1.279-.43-2.155-.218l-3.092.745.476 8.637 3.415-.823c.907-.219 1.593-.61 2.057-1.171a2.57 2.57 0 00.62-1.925c-.064-.843-.45-1.413-1.158-1.709zM9.004 8.511l.761-.184c.17-.04.314-.03.434.033.127.061.198.194.212.399.019.329-.136.558-.463.687l-.886.226-.058-1.161zm1.295 2.9c.334-.03.51.132.525.486a.769.769 0 01-.165.503.791.791 0 01-.45.27l-.968.234-.063-1.235 1.121-.258z"/></symbol><symbol viewBox="0 0 16 16" id="search" xmlns="http://www.w3.org/2000/svg"><path d="M6.958.917A6.042 6.042 0 0111.78 10.6l3.476 3.477a.833.833 0 01-1.178 1.179L10.6 11.779A6.042 6.042 0 116.958.916zm0 1.666a4.375 4.375 0 100 8.75 4.375 4.375 0 000-8.75z"/></symbol><symbol viewBox="0 0 13 13" id="settings" xmlns="http://www.w3.org/2000/svg"><path d="M6.707.52c.22.036.427.12.613.269.305.244.45.552.563 1.002.029.115.079.249.14.379.144.06.283.128.42.202a2.06 2.06 0 00.366-.125c.724-.338 1.332-.32 1.83.217.042.045.067.076.122.143l.323.399c.087.107.124.156.179.247.355.591.216 1.141-.232 1.738a2.107 2.107 0 00-.215.364c.04.145.074.292.1.441.115.092.236.172.344.227.412.21.68.421.849.773a1.3 1.3 0 01.123.658c-.008.117-.02.183-.054.329l-.116.5c-.034.146-.05.21-.095.32a1.294 1.294 0 01-.4.537c-.306.242-.638.314-1.102.323-.117.002-.257.02-.396.05-.09.126-.187.246-.289.362.002.141.016.28.04.393.096.453.1.793-.067 1.146a1.29 1.29 0 01-.434.51 1.78 1.78 0 01-.29.165l-.46.225a1.787 1.787 0 01-.309.127 1.29 1.29 0 01-.669.028c-.381-.086-.647-.3-.945-.654a2.104 2.104 0 00-.303-.287 4.958 4.958 0 01-.45 0 2.105 2.105 0 00-.304.287c-.298.355-.563.568-.945.654a1.29 1.29 0 01-.669-.028 1.787 1.787 0 01-.308-.127l-.46-.225a3.541 3.541 0 01-.096-.048c-.673-.35-.87-.947-.695-1.774.024-.113.038-.25.04-.392a4.89 4.89 0 01-.29-.361 1.973 1.973 0 00-.396-.051c-.463-.009-.796-.08-1.102-.323a1.29 1.29 0 01-.4-.538 1.785 1.785 0 01-.095-.319l-.115-.5a1.735 1.735 0 01-.056-.35 1.287 1.287 0 01.152-.69c.174-.323.431-.521.822-.72a2.09 2.09 0 00.343-.227 4.6 4.6 0 01.1-.44 2.11 2.11 0 00-.214-.365C.756 4.394.618 3.844.973 3.253c.055-.091.092-.14.179-.247l.322-.399c.055-.067.08-.098.122-.143.498-.537 1.106-.555 1.83-.217a2.1 2.1 0 00.367.125 4.86 4.86 0 01.419-.202 2.02 2.02 0 00.14-.38c.113-.449.258-.757.563-1.001A1.29 1.29 0 015.53.521C5.62.506 5.683.5 5.78.5h.594c.15 0 .217.002.333.02zm-.289 1.006h-.557c-.256 0-.385 0-.513.513a3.257 3.257 0 01-.429.96c-.33.108-.64.26-.923.448a3.259 3.259 0 01-1.002-.27c-.48-.223-.56-.123-.722.076l-.323.399c-.161.2-.242.299.076.721.179.238.37.59.48.953a3.827 3.827 0 00-.22.972c-.257.274-.58.504-.843.639-.47.24-.442.365-.384.615l.115.5c.058.25.087.375.616.385.292.005.678.07 1.027.2.178.295.393.564.64.8.049.369.024.758-.036 1.043-.11.518.005.574.236.686l.461.225c.23.113.346.169.686-.236.191-.227.49-.491.817-.68a3.88 3.88 0 00.996 0c.327.189.625.453.816.68.34.405.456.349.686.236l.461-.225c.231-.112.346-.168.237-.686a3.258 3.258 0 01-.037-1.042c.247-.237.463-.506.64-.801a3.257 3.257 0 011.028-.2c.529-.01.558-.135.615-.385l.116-.5c.057-.25.086-.375-.385-.615a3.257 3.257 0 01-.843-.639 3.827 3.827 0 00-.22-.972c.11-.362.301-.715.48-.953.318-.422.238-.522.076-.721l-.323-.399c-.161-.2-.242-.3-.721-.076a3.259 3.259 0 01-1.002.27 3.833 3.833 0 00-.924-.448 3.257 3.257 0 01-.429-.96c-.12-.483-.241-.51-.469-.513zm-.3 2.823a2.31 2.31 0 110 4.618 2.31 2.31 0 010-4.618zm0 1.026a1.283 1.283 0 100 2.566 1.283 1.283 0 000-2.566z"/></symbol><symbol viewBox="0 0 12 12" id="star" xmlns="http://www.w3.org/2000/svg"><path d="M6 .294L7.854 4.05 12 4.653 9 7.577l.708 4.13L6 9.756l-3.708 1.95L3 7.576 0 4.653l4.146-.603L6 .294z"/></symbol><symbol viewBox="0 0 17 18" id="time" xmlns="http://www.w3.org/2000/svg"><path d="M9.357.429c2.322 0 4.488.93 6.072 2.52V1.857l.004-.083a.714.714 0 011.424.083v2.857l-.005.084a.714.714 0 01-.71.63h-2.856l-.083-.004A.714.714 0 0113.286 4h1.173a7.143 7.143 0 10-.05 10.05.714.714 0 111.01 1.01A8.571 8.571 0 119.357.429zM9 4.714c.395 0 .714.32.714.715v3.275l1.934 1.934a.714.714 0 01-1.01 1.01L8.495 9.505A.714.714 0 018.285 9V5.429c0-.395.32-.715.715-.715z"/></symbol><symbol viewBox="0 0 16 14" id="twitter" xmlns="http://www.w3.org/2000/svg"><path fill-rule="evenodd" clip-rule="evenodd" d="M7.933 4.17l.032.522-.527-.063c-1.92-.245-3.596-1.076-5.02-2.47l-.696-.692-.18.51c-.379 1.14-.136 2.343.654 3.152.422.447.327.511-.4.245-.253-.085-.475-.15-.496-.117-.074.074.18 1.043.38 1.426.274.533.833 1.054 1.444 1.363l.517.245-.611.01c-.59 0-.612.011-.549.235.211.692 1.044 1.426 1.972 1.746l.654.223-.57.341a5.937 5.937 0 01-2.826.788c-.474.01-.864.053-.864.085 0 .107 1.286.703 2.035.937 2.246.692 4.914.394 6.918-.788 1.423-.841 2.847-2.512 3.511-4.13.359-.863.717-2.439.717-3.195 0-.49.032-.553.623-1.139.348-.34.675-.713.738-.82.105-.202.095-.202-.443-.02-.896.319-1.023.276-.58-.203.327-.34.717-.958.717-1.14 0-.031-.158.022-.337.118-.19.106-.612.266-.928.362l-.57.18-.517-.35c-.284-.192-.685-.405-.896-.469-.538-.149-1.36-.128-1.845.043-1.319.479-2.152 1.714-2.057 3.066z"/></symbol><symbol viewBox="0 0 17 18" id="user" xmlns="http://www.w3.org/2000/svg"><path d="M11.486 4.83c0-1.699-1.439-3.074-3.216-3.074-1.777 0-3.216 1.375-3.216 3.073s1.44 3.073 3.216 3.073c1.777 0 3.216-1.375 3.216-3.073zm1.838 0c0 2.667-2.262 4.829-5.054 4.829-2.792 0-5.054-2.162-5.054-4.83S5.478 0 8.27 0c2.792 0 5.054 2.161 5.054 4.83zM1.838 15.49c0 .829-.074.753.419.753h12.486c.493 0 .42.076.42-.753 0-2.009-3.037-3.198-6.663-3.198-3.626 0-6.662 1.19-6.662 3.198zM0 15.49c0-3.407 3.95-4.954 8.5-4.954S17 12.084 17 15.49c0 1.77-.718 2.509-2.257 2.509H2.257C.717 18 0 17.262 0 15.491z"/></symbol><symbol viewBox="0 0 24 24" id="users" xmlns="http://www.w3.org/2000/svg"><path d="M17 13.5c3.688 0 6.9 1.31 6.9 4.257 0 1.554-.644 2.243-1.959 2.243H15.15c.264-.503.425-1.107.468-1.8h6.437l.023.002.004-.028c.007-.078.018-.213.018-.417 0-1.512-2.318-2.457-5.1-2.457-.68 0-1.331.056-1.928.164a5.188 5.188 0 00-1.287-1.575c.97-.263 2.07-.389 3.215-.389zm-10 0c3.688 0 6.9 1.31 6.9 4.257 0 1.554-.644 2.243-1.959 2.243H2.06C.744 20 .1 19.311.1 17.757.1 14.81 3.312 13.5 7 13.5zm0 1.8c-2.782 0-5.1.945-5.1 2.457 0 .219.012.358.02.433v.012l.021-.001.05-.001h10.064l.023.002.004-.028c.007-.078.018-.213.018-.417 0-1.512-2.318-2.457-5.1-2.457zM17 4.2a4.15 4.15 0 014.15 4.15A4.15 4.15 0 0117 12.5a4.15 4.15 0 01-4.15-4.15A4.15 4.15 0 0117 4.2zm-10 0a4.15 4.15 0 014.15 4.15A4.15 4.15 0 017 12.5a4.15 4.15 0 01-4.15-4.15A4.15 4.15 0 017 4.2zM17 6a2.35 2.35 0 100 4.7A2.35 2.35 0 1017 6zM7 6a2.35 2.35 0 100 4.7A2.35 2.35 0 107 6z"/></symbol><symbol viewBox="0 0 17 10" id="vk" xmlns="http://www.w3.org/2000/svg"><path fill-rule="evenodd" clip-rule="evenodd" d="M8.865 9.454s.29-.031.439-.188c.136-.144.131-.415.131-.415s-.018-1.265.58-1.452c.59-.184 1.348 1.224 2.152 1.765.607.41 1.068.32 1.068.32l2.148-.03s1.123-.068.59-.935c-.044-.07-.31-.641-1.596-1.813-1.348-1.227-1.167-1.028.455-3.15.988-1.293 1.383-2.082 1.26-2.42C15.973.814 15.248.9 15.248.9L12.83.914s-.18-.024-.313.054c-.13.076-.213.255-.213.255s-.383 1-.893 1.85c-1.077 1.795-1.507 1.89-1.683 1.778-.41-.26-.308-1.043-.308-1.6 0-1.74.27-2.464-.523-2.652-.263-.063-.456-.104-1.129-.11C6.906.48 6.176.492 5.762.69c-.275.132-.488.427-.358.444.16.02.522.096.713.352.248.331.24 1.074.24 1.074s.142 2.047-.333 2.301c-.326.175-.773-.181-1.733-1.81-.491-.833-.863-1.755-.863-1.755s-.071-.172-.2-.265a1 1 0 00-.37-.146L.56.899s-.346.01-.472.157c-.113.13-.009.401-.009.401S1.878 5.59 3.915 7.671C5.783 9.58 7.904 9.454 7.904 9.454h.96z"/></symbol><symbol viewBox="0 0 20 20" id="warn" xmlns="http://www.w3.org/2000/svg"><path d="M12.655.571c.52 0 1.02.207 1.389.576l4.81 4.81c.368.368.575.867.575 1.388v5.31c0 .52-.207 1.02-.576 1.389l-4.81 4.81a1.964 1.964 0 01-1.388.575h-5.31c-.52 0-1.02-.207-1.389-.576l-4.81-4.81a1.964 1.964 0 01-.574-1.388v-5.31c0-.52.206-1.02.575-1.389l4.81-4.81A1.964 1.964 0 017.344.572h5.31zm0 1.572h-5.31a.393.393 0 00-.277.115l-4.81 4.81a.393.393 0 00-.115.277v5.31c0 .104.041.204.115.277l4.81 4.81a.393.393 0 00.277.115h5.31a.393.393 0 00.278-.115l4.81-4.81a.393.393 0 00.114-.277v-5.31a.393.393 0 00-.115-.277l-4.81-4.81a.393.393 0 00-.277-.115zM10 12.2l.097.005a.943.943 0 01-.097 1.88l-.096-.004A.943.943 0 0110 12.2zm0-6.914c.434 0 .786.351.786.785V10a.786.786 0 01-1.572 0V6.071c0-.434.352-.785.786-.785z"/></symbol><symbol viewBox="0 0 18 12" id="watch" xmlns="http://www.w3.org/2000/svg"><path d="M9 .286c4.281 0 8.214 3.254 8.214 5.714 0 2.46-3.932 5.714-8.214 5.714C4.719 11.714.786 8.46.786 6 .786 3.54 4.719.286 9 .286zm0 1.428C5.454 1.714 2.214 4.395 2.214 6c0 1.604 3.24 4.286 6.786 4.286 3.546 0 6.786-2.682 6.786-4.286 0-1.605-3.24-4.286-6.786-4.286zm0 1.429a2.857 2.857 0 110 5.714 2.857 2.857 0 010-5.714zM9 4.57a1.429 1.429 0 100 2.86 1.429 1.429 0 000-2.86z"/></symbol><symbol viewBox="0 0 13 13" id="whatis" xmlns="http://www.w3.org/2000/svg"><path d="M6.5.071A6.43 6.43 0 0112.928 6.5 6.43 6.43 0 016.5 12.929 6.43 6.43 0 01.07 6.5 6.43 6.43 0 016.5.071zm0 1.072A5.36 5.36 0 001.143 6.5 5.36 5.36 0 006.5 11.857 5.36 5.36 0 0011.857 6.5 5.36 5.36 0 006.5 1.143zm0 7.554a.75.75 0 110 1.5.75.75 0 010-1.5zm-.035-5.952c1.098 0 1.988.899 1.988 2.009 0 .442-.179.843-.462 1.13l-.448.462c-.266.272-.458.509-.539.922a1.228 1.228 0 00-.016.166.496.496 0 01-.495.472h-.005a.497.497 0 01-.497-.497v-.001c0-.14.004-.23.013-.274.077-.4.272-.76.545-1.04l.616-.632a1.002 1.002 0 00-.7-1.713.993.993 0 00-.833.457 2.09 2.09 0 00-.133.26.497.497 0 01-.614.268l-.02-.007a.475.475 0 01-.285-.629c.035-.086.07-.163.102-.23.341-.694.984-1.123 1.782-1.123z"/></symbol><symbol viewBox="0 0 17 17" id="write-list" xmlns="http://www.w3.org/2000/svg"><path d="M13.042 7.917a.792.792 0 011.578-.093l.005.093v4.197c0 1.569-.163 2.138-.47 2.711a3.196 3.196 0 01-1.33 1.33c-.573.307-1.142.47-2.71.47h-5.23c-1.568 0-2.137-.163-2.71-.47a3.197 3.197 0 01-1.33-1.33c-.307-.573-.47-1.142-.47-2.71v-5.23c0-1.568.163-2.137.47-2.71a3.197 3.197 0 011.33-1.33c.573-.307 1.142-.47 2.71-.47h4.198v1.583H4.788c-1.197 0-1.562.07-1.934.27a1.48 1.48 0 00-.626.626c-.188.351-.261.696-.269 1.742v5.616c0 1.197.07 1.562.269 1.934.147.275.351.48.626.626.372.2.737.27 1.934.27h5.424c1.197 0 1.562-.07 1.934-.27a1.48 1.48 0 00.626-.626c.2-.372.27-.737.27-1.934V7.917zm.307-5.667l1.359 1.44-6.026 6.026c-.84.84-2.38 1.54-2.66 1.26-.28-.28.42-1.82 1.26-2.66l.113-.113L13.35 2.25zm-4.266.125a.792.792 0 01.093 1.578l-.093.005V2.375zM16.1.899c.42.42.42.98 0 1.4l-.223.223-.33.33-1.4-1.4L14.7.9c.42-.42.98-.42 1.4 0z"/></symbol></svg>