<svg width="49" height="49" viewBox="0 0 49 49" fill="none" xmlns="http://www.w3.org/2000/svg">
<mask id="mask0" mask-type="alpha" maskUnits="userSpaceOnUse" x="0" y="0" width="49" height="49">
<path d="M41 0H8C3.58172 0 0 3.58172 0 8V41C0 45.4183 3.58172 49 8 49H41C45.4183 49 49 45.4183 49 41V8C49 3.58172 45.4183 0 41 0Z" fill="#ECECDD"/>
</mask>
<g mask="url(#mask0)">
<path d="M49 0H0V49H49V0Z" fill="#E4E3CD"/>
<path d="M46.8265 -2.14773C33.5258 -11.461 15.1935 -8.22852 5.88024 5.0722C-3.43302 18.3729 -0.200551 36.7052 13.1002 46.0184C26.4009 55.3317 44.7331 52.0992 54.0464 38.7985C63.3597 25.4978 60.1272 7.16554 46.8265 -2.14773Z" fill="#C4DDD6"/>
<path d="M18.7153 24.1289C21.3086 25.7221 24.0204 25.9594 26.8509 24.8407" stroke="black" stroke-width="2.22222" stroke-linecap="round"/>
<path d="M20.1052 16.0524C20.1707 15.3036 19.7685 14.6567 19.2069 14.6075C18.6452 14.5584 18.1368 15.1256 18.0713 15.8745C18.0058 16.6233 18.408 17.2703 18.9696 17.3194C19.5313 17.3685 20.0397 16.8013 20.1052 16.0524Z" fill="black"/>
<path d="M28.241 16.7643C28.3065 16.0155 27.9043 15.3686 27.3426 15.3194C26.781 15.2703 26.2726 15.8375 26.2071 16.5864C26.1415 17.3353 26.5437 17.9822 27.1054 18.0313C27.667 18.0804 28.1754 17.5132 28.241 16.7643Z" fill="black"/>
</g>
</svg>
