<svg width="49" height="49" viewBox="0 0 49 49" fill="none" xmlns="http://www.w3.org/2000/svg">
<g clip-path="url(#clip0)">
<path d="M49 0H0V49H49V0Z" fill="#ECECDD"/>
<path d="M11.8126 10.2849C-0.548553 15.7884 -6.10775 30.2706 -0.604207 42.6318C4.89934 54.993 19.3815 60.5522 31.7427 55.0486C44.1039 49.5451 49.6631 35.0629 44.1595 22.7017C38.656 10.3406 24.1738 4.78136 11.8126 10.2849Z" fill="#D4DDD6"/>
<path d="M9.70703 26.5649C9.84853 27.9112 10.6973 29.1274 12.0667 29.946C13.436 30.7646 15.2138 31.1184 17.0088 30.9298C18.8039 30.7411 20.4692 30.0254 21.6385 28.94C22.8077 27.8546 23.3851 26.4885 23.2436 25.1422" fill="black"/>
<path d="M11.1684 20.9371C11.0898 20.1895 10.5715 19.6312 10.0108 19.6902C9.45014 19.7491 9.0593 20.4029 9.13788 21.1505C9.21646 21.8981 9.73469 22.4564 10.2954 22.3975C10.8561 22.3385 11.2469 21.6847 11.1684 20.9371Z" fill="black"/>
<path d="M21.9975 19.7989C21.9189 19.0513 21.4006 18.4931 20.8399 18.552C20.2792 18.6109 19.8884 19.2647 19.967 20.0123C20.0456 20.76 20.5638 21.3182 21.1245 21.2593C21.6852 21.2004 22.076 20.5465 21.9975 19.7989Z" fill="black"/>
</g>
<defs>
<clipPath id="clip0">
<rect width="49" height="49" fill="white"/>
</clipPath>
</defs>
</svg>
