<svg width="45" height="44" viewBox="0 0 45 44" fill="none" xmlns="http://www.w3.org/2000/svg">
<path d="M33.5 36.0953L29.2081 26.2372C28.5642 24.7582 28.5341 23.0837 29.1246 21.5826L34.3253 8.36181L23.0051 3.9087L17.8043 17.1295C17.2138 18.6307 16.0511 19.8358 14.5722 20.4797L4.71378 24.7715C3.04898 25.4986 2.01755 27.1899 2.1335 29.0027C2.22898 30.7062 3.42817 32.1554 5.01588 32.78L27.9822 41.8144C30.1927 42.684 32.6894 41.597 33.559 39.3865C33.9765 38.3251 33.9553 37.1412 33.5 36.0953Z" fill="#DFE5FF"/>
<path d="M29.208 26.2369C28.5641 24.7578 28.5341 23.0835 29.1246 21.5825L34.3254 8.36164L24.4203 4.46521L19.2195 17.686C18.629 19.1873 18.659 20.8615 19.3029 22.3405L23.5947 32.1987C24.0501 33.2446 24.0713 34.4284 23.6538 35.4899L23.6537 35.4901C22.7842 37.7004 20.2875 38.7873 18.077 37.9178L27.9823 41.8143C30.1928 42.6838 32.6895 41.5969 33.559 39.3866L33.559 39.3864C33.9766 38.325 33.9554 37.1411 33.5 36.0952L29.208 26.2369Z" fill="#CCD4FF"/>
<path d="M23.307 7.29537C22.9996 8.07676 23.3837 8.95945 24.1653 9.2669L25.5804 9.82358C27.1434 10.4384 27.912 12.2039 27.2972 13.7669L26.7405 15.182C26.4331 15.9634 26.8174 16.8462 27.5988 17.1536C28.3804 17.461 29.263 17.0766 29.5706 16.2953L31.2405 12.0501C31.8554 10.4872 31.0867 8.72164 29.5237 8.1068L25.2786 6.43685C24.497 6.12939 23.6144 6.51379 23.307 7.29537Z" fill="#B8C2FF"/>
<path d="M5.5727 31.3651C4.46443 30.9291 3.71088 29.969 3.65075 28.9167C3.57023 27.739 4.2385 26.6377 5.32039 26.1651L15.1804 21.8725C17.0287 21.0679 18.4816 19.562 19.2194 17.6863L19.9672 15.7855C20.2745 15.0042 21.1571 14.6198 21.9387 14.9272L27.5988 17.1538C28.3804 17.4612 28.7647 18.344 28.4573 19.1254L27.7103 21.0243C26.9719 22.9013 27.0094 24.9945 27.8146 26.844L32.1065 36.7021C32.4523 37.4943 32.4094 38.4022 31.9903 39.1582C31.3036 40.4149 29.6972 40.8551 28.3647 40.331L5.5727 31.3651Z" fill="#FFEA21"/>
<path d="M23.5948 32.1987C24.0501 33.2446 24.0714 34.4285 23.6538 35.4899C23.2762 36.4397 22.5703 37.2222 21.6641 37.695L28.3648 40.3309C29.6974 40.8551 31.3037 40.4148 31.9903 39.1581C32.4093 38.4023 32.4523 37.4942 32.1065 36.702L27.8147 26.8439C27.0095 24.9944 26.972 22.9012 27.7104 21.0242L28.4574 19.1253C28.7649 18.3437 28.3805 17.4609 27.5991 17.1535C27.599 17.1535 27.599 17.1535 27.599 17.1535L21.9389 14.9269C21.1573 14.6195 20.2747 15.0039 19.9671 15.7854L19.2194 17.686C18.629 19.1873 18.6589 20.8615 19.3028 22.3404L23.5948 32.1987Z" fill="#FFD700"/>
<path d="M23.0052 3.90853L34.3254 8.36164C35.107 8.6691 35.4913 9.55185 35.1839 10.3332C34.8765 11.1148 33.9937 11.4991 33.2121 11.1917L21.8919 6.73858C21.1105 6.4312 20.7262 5.54844 21.0337 4.76686C21.3411 3.98547 22.2236 3.60107 23.0052 3.90853Z" fill="#EFF2FF"/>
<path d="M34.3254 8.36164L24.4203 4.46521C25.2017 4.77259 25.586 5.65535 25.2786 6.43674C24.9712 7.21833 24.0884 7.60264 23.307 7.29526L33.2121 11.1917C33.9937 11.4992 34.8764 11.1148 35.1839 10.3333C35.4913 9.55167 35.107 8.6691 34.3254 8.36164Z" fill="#DFE5FF"/>
<path d="M25.0238 11.2387C25.8052 11.5461 26.1895 12.4288 25.8821 13.2102L24.2121 17.4554C23.9047 18.237 23.022 18.6211 22.2406 18.3137C21.459 18.0062 21.0746 17.1237 21.3821 16.3421L23.052 12.0969C23.3594 11.3155 24.2422 10.9312 25.0238 11.2387Z" fill="#EFF2FF"/>
<path d="M21.1298 21.1449C20.5695 20.9241 19.9319 21.0522 19.5004 21.4723C19.4804 21.4922 19.4602 21.5119 19.4399 21.5314C18.8394 22.1194 18.8252 23.0818 19.4083 23.6871C19.9863 24.288 20.942 24.3065 21.543 23.7283C21.5461 23.7254 21.5493 23.7223 21.5524 23.7192L21.6363 23.6374C22.2341 23.0518 22.244 22.0926 21.6584 21.4948C21.5088 21.3422 21.3288 21.223 21.1298 21.1449ZM18.0595 23.1408C17.6845 22.9926 17.2657 23.0002 16.896 23.1617C16.896 23.1617 16.8306 23.1901 16.7163 23.24C16.6018 23.2898 16.4385 23.3609 16.2424 23.4463C16.0464 23.5316 15.8178 23.6312 15.5725 23.7379C15.3802 23.8217 15.1776 23.9099 14.9732 23.9989L12.7135 24.9826C11.9434 25.3179 11.591 26.2138 11.9263 26.9839C12.2614 27.7538 13.1575 28.1063 13.9273 27.7711L18.1099 25.95C18.8798 25.6148 19.2323 24.7188 18.8971 23.9489C18.7362 23.579 18.4349 23.2885 18.0595 23.1408Z" fill="#EFF2FF"/>
<path d="M27.9577 5.85688L33.6178 8.08343C34.0087 8.2372 34.2008 8.67844 34.0471 9.06933C33.8934 9.46003 33.4521 9.65213 33.0612 9.49836L27.4011 7.27181C27.0104 7.11812 26.8183 6.67687 26.972 6.28617C27.1258 5.89529 27.567 5.70319 27.9577 5.85688Z" fill="#EFF2FF"/>
<path d="M25.1644 35.8039L29.4096 37.4738C30.191 37.7812 30.5753 38.664 30.2679 39.4454C29.9604 40.227 29.0777 40.6113 28.2963 40.3039L24.0511 38.6339C23.2695 38.3265 22.8852 37.4437 23.1927 36.6621C23.5 35.8807 24.3828 35.4964 25.1644 35.8039Z" fill="#FFBE00"/>
<path d="M6.76894 28.5676L20.9192 34.134C21.7008 34.4414 22.0851 35.3242 21.7777 36.1056C21.4702 36.8872 20.5875 37.2715 19.8059 36.964L5.65565 31.3977C4.87426 31.0903 4.48994 30.2075 4.7974 29.4259C5.10459 28.6445 5.98735 28.2601 6.76894 28.5676Z" fill="#FFD700"/>
</svg>
