<svg width="13" height="12" viewBox="0 0 13 12" fill="none" xmlns="http://www.w3.org/2000/svg">
<path d="M11.8995 6.22318C11.0221 8.04613 9.19708 9.90693 6.53167 11.0728C3.83111 9.90878 1.98429 8.0392 1.10021 6.20872C0.191063 4.32635 0.336249 2.6084 1.38363 1.61795L1.38365 1.61793C1.93548 1.09604 2.48157 0.901941 2.98724 0.877267C3.50523 0.851993 4.02067 1.00317 4.4948 1.23843C4.96779 1.47312 5.37579 1.77972 5.66852 2.03217C5.81383 2.15748 5.92818 2.26722 6.00518 2.34452C6.04362 2.38311 6.0726 2.41346 6.09131 2.43341L6.11152 2.45524L6.11563 2.45978L6.11564 2.45978L6.11587 2.46004L6.11603 2.46022L6.11616 2.46036L6.26482 2.62766H6.4894H6.51056H6.73515L6.88382 2.46034L6.88395 2.4602L6.88411 2.46002L6.88433 2.45977L6.88434 2.45976L6.88845 2.45523L6.90866 2.4334C6.92737 2.41344 6.95634 2.3831 6.99479 2.34451C7.07178 2.26721 7.18612 2.15747 7.33142 2.03216C7.62413 1.77972 8.03211 1.47311 8.50508 1.23843C8.9792 1.00317 9.49463 0.851993 10.0126 0.877267C10.5183 0.901941 11.0644 1.09604 11.6163 1.61793C12.6635 2.60833 12.8092 4.33313 11.8995 6.22318Z" stroke="#FF4141"/>
</svg>
