<svg width="37" height="24" viewBox="0 0 37 24" fill="none" xmlns="http://www.w3.org/2000/svg">
<g clip-path="url(#clip0)">
<path d="M23.4143 20.6769H13.5856V2.93262H23.4143V20.6769Z" fill="#6C6BBD"/>
<path d="M14.2125 11.8049C14.2125 8.21066 15.8886 5.00129 18.5 2.93276C16.5819 1.42085 14.1824 0.521973 11.5547 0.521973C5.33659 0.521973 0.32196 5.57171 0.32196 11.8049C0.32196 18.0381 5.33659 23.0878 11.5547 23.0878C14.1824 23.0878 16.5694 22.189 18.5 20.677C17.1599 19.6196 16.0775 18.2715 15.3346 16.7345C14.5916 15.1976 14.2075 13.512 14.2112 11.8049H14.2125Z" fill="#D32011"/>
<path d="M36.678 11.8049C36.678 18.0381 31.6634 23.0878 25.4453 23.0878C22.8176 23.0878 20.4306 22.189 18.5 20.677C21.1126 18.6085 22.7875 15.4117 22.7875 11.8049C22.7875 8.19812 21.1114 5.00129 18.5 2.93276C20.4181 1.42085 22.8176 0.521973 25.4453 0.521973C31.6634 0.521973 36.678 5.57171 36.678 11.8049Z" fill="#0099DF"/>
</g>
<defs>
<clipPath id="clip0">
<rect width="36.3561" height="22.5659" fill="white" transform="translate(0.32196 0.521973)"/>
</clipPath>
</defs>
</svg>
