<svg width="38" height="24" viewBox="0 0 38 24" fill="none" xmlns="http://www.w3.org/2000/svg">
<g clip-path="url(#clip0)">
<path d="M24.029 2.9353H14.1978V20.6746H24.029V2.9353Z" fill="#FF5F00"/>
<path d="M14.8221 11.8039C14.8209 10.0951 15.207 8.40895 15.9504 6.87322C16.6938 5.33749 17.7757 3.98981 19.1134 2.93674C17.456 1.62917 15.479 0.815545 13.3704 0.589886C11.2738 0.364306 9.15619 0.735424 7.26129 1.66051C5.36576 2.58571 3.76735 4.02742 2.64783 5.82266C1.52831 7.6179 0.936584 9.68894 0.936584 11.8064C0.936584 13.9238 1.52956 15.9973 2.64783 17.7913C3.76609 19.5853 5.36451 21.0258 7.26129 21.9535C9.15619 22.8786 11.2738 23.2497 13.3704 23.0241C15.4678 22.798 17.4589 21.9846 19.1146 20.6773C17.7757 19.6242 16.6951 18.2752 15.9504 16.7383C15.2067 15.2007 14.8213 13.5144 14.8234 11.8064L14.8221 11.8039Z" fill="#EB001B"/>
<path d="M37.2927 11.8048C37.2927 13.9209 36.6997 15.9957 35.5814 17.7897C34.4632 19.5837 32.8648 21.0242 30.968 21.9519C29.0731 22.877 26.9554 23.2481 24.8589 23.0225C22.7628 22.7968 20.772 21.982 19.1146 20.6744C20.4534 19.6176 21.5349 18.2708 22.2776 16.7354C23.0214 15.1981 23.4078 13.5125 23.4078 11.8048C23.4078 10.097 23.0214 8.41138 22.2776 6.87412C21.5342 5.33839 20.4523 3.99071 19.1146 2.93513C20.7695 1.62505 22.7628 0.812681 24.8564 0.584515C26.9529 0.358935 29.0706 0.730053 30.9655 1.65514C32.8622 2.58034 34.4607 4.02205 35.5789 5.81729C36.6972 7.61252 37.2927 9.67354 37.2927 11.8023V11.8048Z" fill="#F79E1B"/>
</g>
<defs>
<clipPath id="clip0">
<rect width="36.3561" height="22.5659" fill="white" transform="translate(0.936584 0.521973)"/>
</clipPath>
</defs>
</svg>
