<svg width="20" height="20" viewBox="0 0 20 20" fill="none" xmlns="http://www.w3.org/2000/svg">
<g clip-path="url(#clip0)">
<path d="M15.371 1.95319H10.3323C10.0086 1.95319 9.74634 1.69089 9.74634 1.36725C9.74634 1.04361 10.0086 0.781311 10.3323 0.781311H15.371C15.6947 0.781311 15.957 1.04361 15.957 1.36725C15.957 1.69089 15.6947 1.95319 15.371 1.95319Z" fill="#C9DFF7"/>
<path d="M17.8319 4.63672H14.8438C14.5201 4.63672 14.2578 4.37427 14.2578 4.05078C14.2578 3.72714 14.5201 3.46484 14.8438 3.46484H17.8319C18.1555 3.46484 18.4178 3.72714 18.4178 4.05078C18.4178 4.37427 18.1555 4.63672 17.8319 4.63672Z" fill="#9EBBDB"/>
<path d="M5.15622 3.30573H2.16809C1.84445 3.30573 1.58215 3.04343 1.58215 2.71979C1.58215 2.3963 1.84445 2.13385 2.16809 2.13385H5.15622C5.47971 2.13385 5.74216 2.3963 5.74216 2.71979C5.74216 3.04343 5.47971 3.30573 5.15622 3.30573Z" fill="#C9DFF7"/>
<path d="M19.4141 19.2188H8.75722C8.55016 19.2188 8.35851 19.1095 8.25292 18.9313C8.14748 18.7532 8.14397 18.5326 8.24346 18.351L12.8455 9.96307C13.0921 9.5137 13.5293 9.24377 14.0149 9.24103H14.0226C14.5047 9.24103 14.9408 9.50485 15.1906 9.94812L19.9245 18.345C20.0268 18.5265 20.0251 18.7486 19.9201 18.9284C19.815 19.1083 19.6224 19.2188 19.4141 19.2188Z" fill="#9EBBDB"/>
<path d="M15.1906 9.94809C14.9443 9.51108 14.5168 9.24908 14.043 9.24176V19.2187H19.4141C19.6223 19.2187 19.8149 19.1082 19.92 18.9283C20.025 18.7484 20.0267 18.5264 19.9245 18.345L15.1906 9.94809Z" fill="#82A0D2"/>
<path d="M15.6911 19.2188H0.585936C0.378875 19.2188 0.187224 19.1095 0.0816333 18.9313C-0.0238049 18.7532 -0.0273144 18.5326 0.0723255 18.351L6.86829 5.96436C7.11487 5.51514 7.55188 5.24506 8.03772 5.24231H8.04535C8.52737 5.24231 8.96362 5.50613 9.21341 5.9494L16.2015 18.345C16.3039 18.5265 16.3022 18.7486 16.1971 18.9284C16.0921 19.1083 15.8994 19.2188 15.6911 19.2188Z" fill="#5877A6"/>
<path d="M9.21341 5.94925C8.96347 5.50613 8.52722 5.24231 8.04535 5.24231C8.04276 5.24231 8.04016 5.24231 8.03772 5.24231C8.03421 5.24231 8.03085 5.24261 8.02734 5.24261V19.2188H15.6911C15.8994 19.2188 16.0921 19.1083 16.1971 18.9284C16.3022 18.7485 16.3037 18.5265 16.2015 18.345L9.21341 5.94925Z" fill="#2D5078"/>
<path d="M9.21341 5.94925C8.96347 5.50613 8.52722 5.24231 8.04535 5.24231C8.04275 5.24231 8.04016 5.24231 8.03772 5.24231C7.55188 5.24506 7.11472 5.51498 6.86829 5.96436L4.03992 11.1192L5.74356 14.156C5.84747 14.3405 6.04263 14.4547 6.25427 14.4547H6.25656C6.46896 14.4539 6.66428 14.3381 6.76712 14.1522L8.02734 11.8726L8.55499 12.8018C8.65936 12.9874 8.85712 13.1017 9.06876 13.1006C9.28162 13.0995 9.47708 12.9831 9.57947 12.7965L11.3029 9.65576L9.21341 5.94925Z" fill="#C9DFF7"/>
<path d="M8.04535 5.24231C8.04276 5.24231 8.04016 5.24231 8.03772 5.24231C8.03421 5.24231 8.03085 5.24261 8.02734 5.24261V11.8726L8.55499 12.8018C8.65936 12.9874 8.85712 13.1017 9.06876 13.1006C9.28162 13.0995 9.47708 12.9831 9.57947 12.7965L11.303 9.65576L9.21341 5.94925C8.96347 5.50613 8.52737 5.24231 8.04535 5.24231Z" fill="#9EBBDB"/>
</g>
<defs>
<clipPath id="clip0">
<rect width="20" height="20" fill="white"/>
</clipPath>
</defs>
</svg>
