<svg width="19" height="14" viewBox="0 0 19 14" fill="none" xmlns="http://www.w3.org/2000/svg">
<path d="M4.78033 0.59467L8.77408 4.58842L8.77661 4.58779L12.4122 8.22339L12.4116 8.22592L16.7803 12.5947C17.0732 12.8876 17.0732 13.3624 16.7803 13.6553C16.4874 13.9482 16.0126 13.9482 15.7197 13.6553L14.3132 12.2501C12.8605 13.0496 11.2105 13.5 9.5 13.5C5.13632 13.5 0.875 10.233 0.875 7.5C0.875 5.90475 2.51391 3.92299 4.76987 2.70559L3.71967 1.65533C3.42678 1.36244 3.42678 0.887563 3.71967 0.59467C4.01256 0.301777 4.48744 0.301777 4.78033 0.59467ZM2.375 7.5C2.375 9.30451 5.89085 12 9.5 12C10.7994 12 12.0615 11.6922 13.2005 11.1378L11.6532 9.58891C11.108 10.1508 10.3448 10.5 9.5 10.5C7.84315 10.5 6.5 9.15685 6.5 7.5C6.5 6.65521 6.84918 5.89197 7.41109 5.34675L5.88491 3.82179C3.86025 4.78278 2.375 6.47545 2.375 7.5ZM9.5 1.5C13.8637 1.5 18.125 4.76701 18.125 7.5C18.125 8.20849 17.8001 8.99868 17.2275 9.77501C16.9817 10.1084 16.5121 10.1793 16.1788 9.93345C15.8454 9.6876 15.7745 9.21805 16.0203 8.88469C16.4189 8.34424 16.625 7.84305 16.625 7.5C16.625 5.69549 13.1091 3 9.5 3C9.08579 3 8.75 2.66421 8.75 2.25C8.75 1.83579 9.08579 1.5 9.5 1.5ZM8.47199 6.40765C8.18142 6.68122 8 7.06942 8 7.5C8 8.32843 8.67157 9 9.5 9C9.93058 9 10.3188 8.81858 10.5923 8.52801L8.47199 6.40765Z" fill="#777777"/>
</svg>
