<svg width="14" height="14" viewBox="0 0 14 14" fill="none" xmlns="http://www.w3.org/2000/svg">
<path fill-rule="evenodd" clip-rule="evenodd" d="M7 14C10.866 14 14 10.866 14 7C14 3.13401 10.866 0 7 0C3.13401 0 0 3.13401 0 7C0 10.866 3.13401 14 7 14ZM8.83239 6.62252C9.20755 6.24957 9.38496 5.78305 9.36461 5.22294C9.34126 4.67584 9.12384 4.27378 8.71237 4.01677C8.29957 3.75394 7.77017 3.70039 7.12416 3.85612L4.84614 4.40528L5.19702 10.7692L7.71305 10.1627C8.38172 10.0015 8.88698 9.71386 9.22884 9.29981C9.57636 8.88439 9.72844 8.41169 9.68508 7.8817C9.63877 7.26029 9.35454 6.84057 8.83239 6.62252ZM6.63427 5.55871L7.19527 5.42347C7.31994 5.39342 7.42642 5.40153 7.51472 5.4478C7.60868 5.4927 7.66095 5.59065 7.67153 5.74163C7.68506 5.98403 7.57115 6.15274 7.32979 6.24777L6.67728 6.41429L6.63427 5.55871ZM7.58895 7.6961C7.83493 7.67365 7.96384 7.79303 7.9757 8.05426C7.97795 8.19497 7.93739 8.31836 7.854 8.42445C7.77496 8.52334 7.6646 8.58986 7.52293 8.62401L6.80893 8.79614L6.76244 7.88613L7.58895 7.6961Z" fill="#7AC834"/>
</svg>
