<svg width="30" height="31" viewBox="0 0 30 31" fill="none" xmlns="http://www.w3.org/2000/svg">
<g clip-path="url(#clip0)">
<path d="M24.2352 20.9863C24.3104 21.5692 24.1387 21.8224 23.9469 21.8224C23.755 21.8224 23.483 21.5893 23.1947 21.1229C22.9063 20.6565 22.7897 20.1325 22.9439 19.8592C23.0405 19.6837 23.2323 19.606 23.5031 19.7038C23.9845 19.8793 24.1775 20.6377 24.2352 20.9875V20.9863ZM21.4997 22.27C22.0965 22.7752 22.2707 23.3782 21.9636 23.7744C21.7906 24.0076 21.4997 24.1254 21.1738 24.1254C20.8478 24.1254 20.4993 24.0088 20.2686 23.7945C19.7295 23.3281 19.5753 22.5496 19.9214 22.1221C20.0567 21.9466 20.2874 21.85 20.5382 21.85C20.8953 21.8768 21.2336 22.0204 21.501 22.2587L21.4997 22.27ZM20.5168 27.1317C23.0618 27.1317 25.8148 28.0067 28.8599 30.7485C29.1683 31.0205 29.5745 30.6908 29.3025 30.3398C26.2975 26.5086 23.5357 25.789 20.7676 25.1672C17.3827 24.4087 15.6426 22.5032 14.4291 20.3832C14.1783 19.957 14.0818 20.0322 14.063 20.5776C14.041 21.3787 14.0989 22.18 14.236 22.9695H13.8311C8.99572 22.9695 5.06425 19.0017 5.06425 14.1212C5.06425 9.24073 8.99321 5.27416 13.8323 5.27416C18.6715 5.27416 22.5992 9.24199 22.5992 14.1225C22.5992 14.4735 22.5804 14.8245 22.5415 15.153C21.9059 15.0364 20.6359 15.0151 19.7484 15.0953C19.4224 15.1141 19.46 15.2896 19.7107 15.3285C22.6004 15.855 24.605 17.6603 25.0476 20.97C25.0664 21.0477 25.1629 21.0677 25.2018 21.0076C26.4337 18.9302 27.0797 16.5577 27.071 14.1425C27.0672 6.75097 21.1324 0.760986 13.811 0.760986C6.48966 0.760986 0.556091 6.73091 0.556091 14.1212C0.556091 21.5115 6.48966 27.5015 13.811 27.5015C15.7567 27.5203 17.6848 27.1317 20.5156 27.1317H20.5168Z" fill="#FF8C00"/>
</g>
<defs>
<clipPath id="clip0">
<rect width="28.8341" height="30.0878" fill="white" transform="translate(0.556091 0.760986)"/>
</clipPath>
</defs>
</svg>
