<svg width="28" height="26" viewBox="0 0 28 26" fill="none" xmlns="http://www.w3.org/2000/svg">
<g clip-path="url(#clip0)">
<path fill-rule="evenodd" clip-rule="evenodd" d="M25.41 4.26489C25.7021 4.64099 25.9566 5.04216 26.2124 5.4684L25.41 4.26489Z" fill="#00945A"/>
<path d="M25.41 4.26489C25.7021 4.64099 25.9566 5.04216 26.2124 5.4684L25.41 4.26489Z" fill="#00945A"/>
<path fill-rule="evenodd" clip-rule="evenodd" d="M3.84827 3.13292L4.90635 2.07233L14.1734 7.27125L23.4404 2.07233C23.8165 2.39075 24.1701 2.77939 24.4985 3.13292L14.1721 8.91855L3.84827 3.13292ZM6.11112 1.11704L7.53402 0.268311L14.1734 3.98165L20.8128 0.303413C21.2867 0.550384 21.7618 0.83371 22.1993 1.15214L14.1721 5.644L6.11112 1.15214V1.11704Z" fill="#00945A"/>
<path d="M20.8129 0.303467C21.2867 0.550438 21.7619 0.833764 22.1994 1.15219L20.8129 0.303467Z" fill="#00945A"/>
<path fill-rule="evenodd" clip-rule="evenodd" d="M26.285 5.46718L14.1747 12.1868L2.13581 5.46718L2.88801 4.26367L14.1609 10.557L25.3611 4.29752L26.2738 5.46342L26.285 5.46718ZM26.8692 6.73965C27.6124 8.3846 27.9979 10.1686 28 11.9737C28 19.2938 21.7618 25.3414 14.2098 25.3414C6.6214 25.3414 0.419556 19.2938 0.419556 11.9737C0.421733 10.1686 0.807166 8.3846 1.55036 6.73965L14.1747 13.8479L26.8718 6.73965H26.8692Z" fill="#00945A"/>
</g>
<defs>
<clipPath id="clip0">
<rect width="27.5805" height="25.0732" fill="white" transform="translate(0.419556 0.268311)"/>
</clipPath>
</defs>
</svg>
