<svg width="39" height="33" viewBox="0 0 39 33" fill="none" xmlns="http://www.w3.org/2000/svg">
<path d="M10.3815 28.5564C11.3678 27.7319 12.2902 26.5008 12.2902 24.7798L18.0816 22.9711L20.9493 24.7798C19.4478 29.2659 15.0135 31.5652 12.7133 32.484C11.8797 32.817 10.9291 32.6361 10.2747 32.0216C9.26057 31.0694 9.31428 29.4486 10.3815 28.5564Z" fill="url(#paint0_linear)"/>
<path d="M12.2902 24.7798L18.0816 22.9711L20.9493 24.7798C20.6415 25.6994 20.2091 26.5257 19.6984 27.2685H11.5446C11.9879 26.5889 12.2902 25.7647 12.2902 24.7798Z" fill="#8959C3"/>
<path d="M3.24143 14.3116C2.9571 13.5612 2.80014 12.7483 2.80014 11.8982C2.80014 8.33423 5.53714 5.41129 9.02367 5.11216C9.88037 2.329 12.4717 0.305984 15.5359 0.305984C17.0859 0.305984 18.5143 0.82449 19.6591 1.6963C20.8039 0.82449 22.2323 0.305984 23.7823 0.305984C26.8465 0.305984 29.4378 2.329 30.2945 5.11216C33.781 5.41129 36.518 8.33423 36.518 11.8982C36.518 12.7482 36.3611 13.5612 36.0767 14.3116C37.8162 15.2547 39 17.0973 39 19.2108C39 22.282 36.5021 24.7799 33.431 24.7799H5.88713C2.81601 24.7799 0.318104 22.282 0.318104 19.2108C0.31818 17.0973 1.50198 15.2547 3.24143 14.3116Z" fill="url(#paint1_linear)"/>
<path d="M13.0239 4.70278C13.4785 4.2342 14.0662 3.88976 14.6791 3.73303C15.1229 3.61953 15.3907 3.1676 15.2772 2.72376C15.1636 2.27992 14.7122 2.01192 14.2678 2.12566C13.3494 2.3606 12.5074 2.85229 11.833 3.54764C11.514 3.87651 11.522 4.40172 11.8509 4.72073C12.1797 5.03959 12.7049 5.0318 13.0239 4.70278Z" fill="#FDC6E3"/>
<path d="M19.1502 4.42553C19.4234 4.05775 19.3468 3.53808 18.9789 3.26484C18.6768 3.04046 18.2713 2.75258 17.814 2.51641C17.407 2.30628 16.9065 2.46578 16.6962 2.87302C16.4861 3.2801 16.6457 3.7805 17.0527 3.99071C17.404 4.17194 17.7378 4.40981 17.9895 4.59675C18.3575 4.86999 18.8771 4.79332 19.1502 4.42553Z" fill="#FDC6E3"/>
<path d="M29.2685 13.8196C29.859 13.3624 30.527 13.0009 31.249 12.7564C30.7064 12.3542 30.2283 11.8151 30.0057 11.0986C29.9037 10.7704 30.0871 10.4217 30.4153 10.3198C30.7433 10.2179 31.0921 10.4013 31.1941 10.7294C31.4152 11.4414 32.1278 11.9064 32.6865 12.1711C32.8844 12.2648 33.0778 12.3407 33.2528 12.4016H33.2528C33.3121 12.4001 33.3713 12.3978 33.4311 12.3978C34.5006 12.3978 35.5123 12.6449 36.413 13.0841C36.3385 13.508 36.2256 13.9185 36.0766 14.3116C35.2892 13.8846 34.3879 13.6418 33.4309 13.6418C32.1513 13.6418 30.9715 14.0764 30.0311 14.8052C29.785 14.9959 29.4344 14.9697 29.2141 14.7496C28.9505 14.4858 28.9735 14.048 29.2685 13.8196Z" fill="#FD75BE"/>
<path d="M20.4216 7.21147C21.141 7.20777 21.5899 7.04665 21.8697 6.85401C22.1636 6.65174 22.3077 6.28866 22.2463 5.93721C21.9447 4.21417 20.9956 2.71406 19.659 1.69623C20.0069 1.43124 20.381 1.19915 20.7769 1.0042C22.2265 2.24849 23.2304 3.99803 23.5124 5.97705C23.5678 6.36517 23.7952 6.71308 24.1346 6.90926C24.4227 7.0757 24.8466 7.20785 25.4677 7.2114C25.806 7.21332 26.1019 7.47076 26.1151 7.80873C26.1289 8.16372 25.8453 8.45584 25.4934 8.45584C24.1296 8.45584 23.3623 7.99212 22.9448 7.56593C22.5274 7.99212 21.76 8.45584 20.3963 8.45584C20.0445 8.45584 19.761 8.16395 19.7746 7.80919C19.7876 7.4713 20.0834 7.21317 20.4216 7.21147Z" fill="#FD75BE"/>
<path d="M5.88705 12.3978C6.1572 12.3978 6.42328 12.4146 6.68519 12.4453C7.39171 11.6122 8.59685 10.7713 10.6214 10.6101C10.9662 10.5814 11.2637 10.8384 11.2911 11.1808C11.3184 11.5233 11.0628 11.8231 10.7203 11.8504C9.53539 11.9449 8.70697 12.3148 8.12774 12.7756C8.82748 13.0197 9.47513 13.3747 10.0498 13.8196C10.3448 14.0479 10.3678 14.4857 10.1041 14.7495C9.88391 14.9696 9.53323 14.9958 9.28712 14.8051C8.34665 14.0763 7.16686 13.6417 5.88728 13.6417C4.93025 13.6417 4.02901 13.8845 3.24158 14.3115C3.09264 13.9184 2.97967 13.508 2.90524 13.084C3.80586 12.6449 4.81744 12.3978 5.88705 12.3978Z" fill="#FD75BE"/>
<path d="M8.04379 19.5081C8.59636 21.2554 9.67382 21.9917 10.5152 22.3019C10.9986 21.5802 11.3191 20.7406 11.4205 19.835C11.4588 19.4926 11.7618 19.2431 12.1044 19.2793C12.4481 19.3156 12.696 19.6252 12.6578 19.9688C12.4369 21.9536 11.359 23.6828 9.80466 24.7798H5.88709C7.34644 24.7798 8.67557 24.2146 9.66951 23.2926C8.72119 22.8446 7.49269 21.8924 6.85722 19.8833C6.75365 19.5557 6.9352 19.2061 7.26284 19.1024C7.59071 18.9991 7.94015 19.1806 8.04379 19.5081Z" fill="#FD75BE"/>
<path d="M32.7608 22.9705C31.9701 22.9705 31.3292 22.4554 31.3292 21.82C31.3292 21.1846 31.9701 20.6695 32.7608 20.6695C33.5514 20.6695 34.1924 21.1846 34.1924 21.82C34.1924 22.4554 33.5514 22.9705 32.7608 22.9705Z" fill="#FD75BE"/>
<path d="M15.9132 22.9705C15.1225 22.9705 14.4816 22.4554 14.4816 21.82C14.4816 21.1846 15.1225 20.6695 15.9132 20.6695C16.7038 20.6695 17.3448 21.1846 17.3448 21.82C17.3448 22.4554 16.7038 22.9705 15.9132 22.9705Z" fill="#FD75BE"/>
<path d="M30.3064 21.82C28.7385 21.82 27.4675 20.549 27.4675 18.9811C27.4675 17.4133 28.7385 16.1423 30.3064 16.1423C31.8743 16.1423 33.1453 17.4133 33.1453 18.9811C33.1453 20.549 31.8743 21.82 30.3064 21.82Z" fill="white"/>
<path d="M18.3677 21.82C16.7998 21.82 15.5288 20.549 15.5288 18.9811C15.5288 17.4133 16.7998 16.1423 18.3677 16.1423C19.9355 16.1423 21.2065 17.4133 21.2065 18.9811C21.2065 20.549 19.9355 21.82 18.3677 21.82Z" fill="white"/>
<path d="M30.3064 20.6731C29.3719 20.6731 28.6144 19.9156 28.6144 18.9812C28.6144 18.0467 29.3719 17.2892 30.3064 17.2892C31.2408 17.2892 31.9984 18.0467 31.9984 18.9812C31.9984 19.9156 31.2408 20.6731 30.3064 20.6731Z" fill="#383842"/>
<path d="M18.3678 20.6731C17.4333 20.6731 16.6758 19.9156 16.6758 18.9812C16.6758 18.0467 17.4333 17.2892 18.3678 17.2892C19.3022 17.2892 20.0598 18.0467 20.0598 18.9812C20.0598 19.9156 19.3022 20.6731 18.3678 20.6731Z" fill="#383842"/>
<path d="M24.337 21.8156C24.8173 21.8156 25.2976 21.634 25.6893 21.2708C25.8454 21.1261 25.8546 20.8823 25.7099 20.7263C25.5653 20.5703 25.3214 20.561 25.1654 20.7057C24.6777 21.158 23.9963 21.158 23.5085 20.7057C23.3525 20.5612 23.1088 20.5703 22.964 20.7263C22.8194 20.8823 22.8286 21.1261 22.9846 21.2708C23.3764 21.634 23.8567 21.8156 24.337 21.8156Z" fill="#383842"/>
<defs>
<linearGradient id="paint0_linear" x1="15.2479" y1="22.9711" x2="15.2479" y2="32.6486" gradientUnits="userSpaceOnUse">
<stop offset="0.0223" stop-color="#8959C3"/>
<stop offset="1" stop-color="#A27CCF"/>
</linearGradient>
<linearGradient id="paint1_linear" x1="19.6591" y1="0.305984" x2="19.6591" y2="24.7798" gradientUnits="userSpaceOnUse">
<stop offset="0.0212" stop-color="#FFB1DB"/>
<stop offset="1" stop-color="#FD86C8"/>
</linearGradient>
</defs>
</svg>
