<svg width="54" height="18" viewBox="0 0 54 18" fill="none" xmlns="http://www.w3.org/2000/svg">
<path d="M20.4672 0.338951L13.4091 17.3135H8.80444L5.33181 3.7652C5.12119 2.93277 4.93816 2.62688 4.29754 2.27335C3.24948 1.70168 1.52069 1.16637 0 0.831638L0.1028 0.338951H7.51568C8.45969 0.338951 9.30841 0.972048 9.52404 2.069L11.3581 11.8927L15.8901 0.338951H20.466H20.4672ZM26.6916 0.338951L23.0899 17.3135H18.7334L22.3364 0.338951H26.6929H26.6916ZM38.5086 11.7723C38.5274 7.29299 32.3657 7.04602 32.4058 5.04268C32.4209 4.43465 32.995 3.78651 34.2537 3.62103C34.8768 3.53954 36.5981 3.47435 38.55 4.38075L39.3147 0.778985C38.0115 0.287572 36.6307 0.0336637 35.2378 0.0292969C30.9315 0.0292969 27.9039 2.33603 27.8789 5.63942C27.85 8.08405 30.0427 9.44553 31.69 10.2604C33.3874 11.0916 33.9566 11.6269 33.9491 12.3691C33.9365 13.5074 32.5951 14.0114 31.344 14.0314C29.1526 14.0665 27.8839 13.4347 26.8684 12.9583L26.0786 16.6791C27.0978 17.1505 28.9746 17.5592 30.9215 17.5818C35.4999 17.5818 38.4936 15.3026 38.5061 11.7736L38.5086 11.7723ZM49.8793 17.3135H53.9073L50.3883 0.338951H46.6737C46.2751 0.335654 45.8847 0.452708 45.5537 0.67481C45.2227 0.896912 44.9664 1.21373 44.8183 1.58383L38.2817 17.3147H42.8576L43.7652 14.7786H49.354L49.8806 17.3147L49.8793 17.3135ZM45.0189 11.3122L47.3131 4.93737L48.6294 11.3122H45.0189Z" fill="#3E45C0"/>
</svg>
