<svg width="24" height="31" viewBox="0 0 24 31" fill="none" xmlns="http://www.w3.org/2000/svg">
<g clip-path="url(#clip0)">
<path d="M0.960938 14.9311C0.960938 13.2436 1.09884 12.173 4.55518 9.55288C7.40224 7.38906 16.5627 0 16.5627 0V12.3335H23.5268V30.0878H3.13603C1.94255 30.0878 0.960938 29.0924 0.960938 27.8814V14.9311Z" fill="#FFD000"/>
<path d="M16.5627 12.3335V19.4856L3.76538 28.3239L19.9438 22.9896V12.3335H16.5627Z" fill="#D8B100"/>
<path d="M10.7081 11.9647C11.4541 11.0558 12.5535 10.7424 13.1503 11.2502C13.747 11.7579 13.6304 12.905 12.8832 13.8139C12.1361 14.7228 11.0379 15.0362 10.4411 14.5285C9.84438 14.0207 9.96097 12.8736 10.7081 11.9647Z" fill="black"/>
</g>
<defs>
<clipPath id="clip0">
<rect width="22.5659" height="30.0878" fill="white" transform="translate(0.960938)"/>
</clipPath>
</defs>
</svg>
