<svg width="204" height="94" viewBox="0 0 204 94" fill="none" xmlns="http://www.w3.org/2000/svg">
<path fill-rule="evenodd" clip-rule="evenodd" d="M0 33.3061V93.6735L204 58.2857V0L0 33.3061ZM186.292 47.9886L186.338 15.5848L173.768 17.793C170.027 18.4502 167.127 19.9469 165.069 22.283C163.012 24.6191 161.93 27.2464 161.826 30.1649C161.729 32.249 162.173 34.1611 163.158 35.901C164.167 37.6058 165.614 38.8171 167.498 39.535L160.702 52.4839L170.938 50.6858L176.566 39.5157L177.329 39.3816L177.313 49.5659L186.292 47.9886ZM171.674 31.9522C171.095 31.4677 170.801 30.7633 170.793 29.8392C170.815 28.9097 171.111 28.1328 171.68 27.5083C172.244 26.8539 172.989 26.4452 173.917 26.2822L177.329 25.6829L177.338 31.7903L173.926 32.3896C173.033 32.5773 172.282 32.4315 171.674 31.9522ZM131.992 57.5736L131.993 25.1777L140.972 23.6004L140.993 37.9435L150.849 21.8654L158.032 20.6036L158.031 52.9995L149.052 54.5768L149.031 40.2337L139.175 56.3118L131.992 57.5736ZM127.508 25.9658L118.529 27.5431L118.509 39.0238L110.877 40.3645L110.897 28.8837L101.918 30.461L101.916 62.8569L110.895 61.2796L110.881 49.3421L118.513 48.0014L118.527 59.9389L127.506 58.3617L127.508 25.9658ZM90.7309 64.8219L89.6619 60.8445L80.5933 62.4376L79.5073 66.7935L69.5857 68.5364L79.5986 34.3818L90.1038 32.5364L100.114 63.1736L90.7309 64.8219ZM82.519 54.6946L87.7267 53.7798L85.1332 44.2853L82.519 54.6946ZM67.795 36.4554L58.8161 38.0326L58.7966 49.5134L51.1646 50.8541L51.1841 39.3733L42.2053 40.9506L42.2039 73.3465L51.1827 71.7692L51.1682 59.8317L58.8002 58.491L58.8147 70.4285L67.7935 68.8512L67.795 36.4554ZM34.9709 58.373C37.2237 56.6198 38.3469 54.2319 38.3404 51.2094C38.3497 48.2768 37.1835 46.0288 34.8418 44.4656C32.5299 42.8971 29.698 42.4073 26.3459 42.9962C23.6522 43.4693 21.2979 44.4691 19.2829 45.9955C17.2679 47.5219 15.7887 49.4632 14.8451 51.8196L22.8034 55.2346C23.4194 53.121 24.6702 51.8985 26.5557 51.5673C27.3937 51.4201 28.0538 51.4892 28.5359 51.7748C29.0427 52.0251 29.2967 52.505 29.2979 53.2144C29.3092 54.5083 28.5296 55.3394 26.9591 55.7078L23.2408 56.4073L23.2347 64.2759L28.0013 63.4848C29.5188 63.3417 30.2657 63.9047 30.2418 65.1738C30.1949 66.663 29.1089 67.5943 26.9839 67.9676C24.5896 68.3882 22.9398 67.6907 22.0347 65.8751L14.9116 71.4304C17.4042 75.9598 21.5986 77.7067 27.4947 76.6709C31.3556 75.9927 34.284 74.6607 36.28 72.6748C38.2707 70.6591 39.2707 68.1848 39.28 65.2522C39.2966 62.0097 37.8603 59.7166 34.9709 58.373Z" fill="black"/>
</svg>
