<svg width="142" height="66" viewBox="0 0 142 66" fill="none" xmlns="http://www.w3.org/2000/svg">
<path fill-rule="evenodd" clip-rule="evenodd" d="M0 23.1837V65.2041L142 40.5714V0L0 23.1837ZM129.674 33.4038L129.706 10.8483L120.956 12.3854C118.352 12.8428 116.334 13.8846 114.901 15.5107C113.469 17.1368 112.716 18.9656 112.643 20.9971C112.576 22.4479 112.885 23.7788 113.57 24.9899C114.273 26.1766 115.28 27.0198 116.592 27.5195L111.861 36.5329L118.986 35.2813L122.903 27.506L123.435 27.4127L123.424 34.5018L129.674 33.4038ZM119.498 22.2413C119.095 21.904 118.891 21.4137 118.885 20.7704C118.901 20.1235 119.106 19.5826 119.502 19.148C119.895 18.6925 120.414 18.408 121.06 18.2945L123.435 17.8773L123.441 22.1285L121.066 22.5458C120.444 22.6764 119.922 22.5749 119.498 22.2413ZM91.8766 40.0758L91.8776 17.5257L98.1276 16.4278L98.1419 26.4117L105.003 15.2201L110.003 14.3417L110.002 36.8918L103.752 37.9897L103.737 28.0059L96.8766 39.1974L91.8766 40.0758ZM88.7551 18.0742L82.5051 19.1721L82.4916 27.1636L77.1791 28.0969L77.1927 20.1054L70.9427 21.2033L70.9417 43.7534L77.1917 42.6555L77.1816 34.346L82.4941 33.4127L82.5041 41.7222L88.7541 40.6243L88.7551 18.0742ZM63.1556 45.1211L62.4116 42.3526L56.0991 43.4615L55.3432 46.4935L48.437 47.7067L55.4067 23.9325L62.7191 22.6479L69.6868 43.9738L63.1556 45.1211ZM57.4395 38.0717L61.0645 37.435L59.2592 30.826L57.4395 38.0717ZM47.1904 25.3758L40.9405 26.4737L40.9269 34.4652L35.6144 35.3984L35.628 27.407L29.378 28.5049L29.377 51.055L35.627 49.957L35.6169 41.6476L40.9294 40.7143L40.9395 49.0238L47.1894 47.9259L47.1904 25.3758ZM24.3423 40.6322C25.9104 39.4118 26.6922 37.7497 26.6878 35.6458C26.6942 33.6044 25.8825 32.0397 24.2524 30.9516C22.6432 29.8598 20.6719 29.5188 18.3386 29.9287C16.4636 30.2581 14.8249 30.954 13.4223 32.0165C12.0197 33.079 10.99 34.4303 10.3332 36.0705L15.8728 38.4476C16.3016 36.9764 17.1722 36.1255 18.4847 35.8949C19.068 35.7924 19.5275 35.8406 19.8631 36.0393C20.2158 36.2136 20.3926 36.5476 20.3935 37.0414C20.4013 37.942 19.8587 38.5206 18.7655 38.7771L16.1773 39.2639L16.173 44.7411L19.491 44.1904C20.5473 44.0908 21.0671 44.4827 21.0505 45.3661C21.0178 46.4027 20.2619 47.0509 18.7827 47.3108C17.1161 47.6035 15.9677 47.118 15.3377 45.8543L10.3795 49.7212C12.1145 52.874 15.0341 54.09 19.1383 53.369C21.8258 52.8969 23.8642 51.9697 25.2535 50.5874C26.6392 49.1843 27.3353 47.462 27.3418 45.4206C27.3534 43.1636 26.3535 41.5675 24.3423 40.6322Z" fill="black"/>
</svg>
